<svg xmlns="http://www.w3.org/2000/svg" viewBox="0 0 320 140" width="320" height="140"
     fill="none" stroke="#000" stroke-width="2.4" stroke-linecap="round" stroke-linejoin="round">
  <title>turing machine</title>
  <defs>
    <radialGradient id="vg" cx="50%" cy="52%" r="85%">
      <stop offset="0.60" stop-color="#fff"/>
      <stop offset="1" stop-color="#fff" stop-opacity="0"/>
    </radialGradient>
    <linearGradient id="tl" x1="0" y1="0" x2="0.46" y2="0.56">
      <stop offset="0" stop-color="#fff" stop-opacity="0.5"/>
      <stop offset="1" stop-color="#fff"/>
    </linearGradient>
    <mask id="vignette" maskContentUnits="userSpaceOnUse">
      <rect width="320" height="140" fill="url(#vg)"/>
    </mask>
    <mask id="corner" maskContentUnits="userSpaceOnUse">
      <rect width="320" height="140" fill="url(#tl)"/>
    </mask>
    <marker id="ah" viewBox="0 0 10 10" refX="8.4" refY="5" markerWidth="5.2" markerHeight="5.2"
            orient="auto-start-reverse" markerUnits="strokeWidth">
      <path d="M0.8 1.1 L9 5 L0.8 8.9" fill="none" stroke="#000" stroke-width="1.7"
            stroke-linecap="round" stroke-linejoin="round"/>
    </marker>
  </defs>
  <g mask="url(#corner)"><g mask="url(#vignette)">
    <rect x="26" y="98" width="270" height="32" rx="2" stroke-width="2.4" opacity="1.0"/>
    <line x1="53" y1="98" x2="53" y2="130" stroke-width="1.8" opacity="0.55"/>
    <line x1="80" y1="98" x2="80" y2="130" stroke-width="1.8" opacity="0.55"/>
    <line x1="107" y1="98" x2="107" y2="130" stroke-width="1.8" opacity="0.55"/>
    <line x1="134" y1="98" x2="134" y2="130" stroke-width="1.8" opacity="0.55"/>
    <line x1="161" y1="98" x2="161" y2="130" stroke-width="1.8" opacity="0.55"/>
    <line x1="188" y1="98" x2="188" y2="130" stroke-width="1.8" opacity="0.55"/>
    <line x1="215" y1="98" x2="215" y2="130" stroke-width="1.8" opacity="0.55"/>
    <line x1="242" y1="98" x2="242" y2="130" stroke-width="1.8" opacity="0.55"/>
    <line x1="269" y1="98" x2="269" y2="130" stroke-width="1.8" opacity="0.55"/>
    <g fill="#000" stroke="none" font-family="ui-monospace, 'DejaVu Sans Mono', Menlo, Consolas, monospace" font-size="16" font-weight="600" opacity="0.9">
      <text x="39.5" y="120" text-anchor="middle">λ</text>
      <text x="66.5" y="120" text-anchor="middle">1</text>
      <text x="93.5" y="120" text-anchor="middle">0</text>
      <text x="120.5" y="120" text-anchor="middle">1</text>
      <text x="147.5" y="120" text-anchor="middle">1</text>
      <text x="174.5" y="120" text-anchor="middle">0</text>
      <text x="201.5" y="120" text-anchor="middle">1</text>
      <text x="228.5" y="120" text-anchor="middle">0</text>
      <text x="255.5" y="120" text-anchor="middle">λ</text>
      <text x="282.5" y="120" text-anchor="middle">λ</text>
    </g>
    <path d="M139.5 86 L155.5 86 L147.5 97 Z" fill="#000" stroke="none"/>
    <line x1="147.5" y1="84" x2="147.5" y2="71" stroke-width="1.4" stroke-dasharray="3 5" opacity="0.42"/>
    <line x1="26" y1="52" x2="45" y2="52" stroke-width="2.1" opacity="0.75" marker-end="url(#ah)"/>
    <path d="M78 40 Q112 18 146 40" stroke-width="2.1" opacity="1.0" marker-end="url(#ah)"/>
    <path d="M170 40 Q204 18 238 40" stroke-width="2.1" opacity="1.0" marker-end="url(#ah)"/>
    <path d="M238 40 C224 8 276 8 262 40" stroke-width="2.0" opacity="0.8" marker-end="url(#ah)"/>
    <circle cx="66" cy="52" r="17" stroke-width="2.5" opacity="1.0"/>
    <circle cx="158" cy="52" r="17" stroke-width="2.5" opacity="1.0"/>
    <circle cx="250" cy="52" r="17" stroke-width="2.5" opacity="1.0"/>
    <g fill="#000" stroke="none" font-family="ui-monospace, 'DejaVu Sans Mono', Menlo, Consolas, monospace" font-size="13" font-weight="700" opacity="0.9">
      <text x="66" y="57" text-anchor="middle">q0</text>
      <text x="158" y="57" text-anchor="middle">q1</text>
      <text x="250" y="57" text-anchor="middle">q2</text>
    </g>
  </g></g>
</svg>
